<?xml version="1.0" standalone="no"?>
<!DOCTYPE svg PUBLIC "-//W3C//DTD SVG 20010904//EN"
 "http://www.w3.org/TR/2001/REC-SVG-20010904/DTD/svg10.dtd">
<svg version="1.0" xmlns="http://www.w3.org/2000/svg"
 width="512.000000pt" height="512.000000pt" viewBox="0 0 512.000000 512.000000"
 preserveAspectRatio="xMidYMid meet">

<g transform="translate(0.000000,512.000000) scale(0.100000,-0.100000)"
fill="#000000" stroke="none">
<path d="M820 4800 c-111 -24 -187 -51 -276 -99 -259 -140 -444 -379 -516
-668 -32 -128 -32 -351 1 -478 102 -398 427 -700 830 -770 64 -12 178 -15 498
-15 322 0 415 -3 418 -12 3 -7 4 -213 3 -457 l-3 -444 -32 27 c-60 50 -120 71
-208 70 -63 0 -90 -5 -130 -24 -64 -31 -124 -91 -155 -155 -31 -65 -34 -186
-7 -257 10 -26 137 -210 283 -410 l264 -363 0 -153 c0 -191 15 -229 107 -276
28 -14 98 -16 623 -16 573 0 592 1 630 20 22 11 52 39 67 62 26 38 28 50 31
161 l4 119 64 87 c73 97 162 269 198 382 58 183 61 210 61 654 l0 410 -29 53
c-55 99 -139 153 -251 159 -45 3 -87 -1 -117 -10 l-48 -15 -20 34 c-70 112
-230 159 -357 104 -29 -12 -57 -28 -63 -35 -9 -11 -20 -8 -58 16 -44 27 -146
53 -175 44 -7 -2 -27 -6 -45 -9 l-32 -5 0 119 0 119 943 3 c932 3 943 4 1019
25 189 54 330 134 466 267 141 137 237 303 285 496 31 125 30 350 -2 473 -91
352 -336 618 -675 733 -152 52 -183 54 -838 54 l-610 0 -29 -29 c-40 -40 -40
-89 0 -133 l29 -33 634 -6 c700 -6 672 -3 825 -74 225 -104 397 -304 465 -542
19 -64 22 -102 22 -213 -1 -116 -5 -147 -28 -223 -14 -49 -38 -112 -52 -140
-88 -174 -245 -320 -427 -395 -150 -63 -135 -62 -1139 -62 l-913 0 -49 56
c-67 76 -127 104 -226 104 -108 0 -199 -47 -255 -134 l-18 -27 -461 3 -461 3
-95 32 c-279 95 -490 315 -566 593 -25 89 -25 300 -1 389 69 255 227 446 458
555 152 72 125 70 832 76 l639 5 29 33 c40 44 40 93 0 133 l-29 29 -624 -1
c-566 0 -631 -2 -708 -19z m1327 -1894 l28 -24 5 -475 c5 -461 6 -476 26 -503
36 -49 95 -55 145 -15 23 19 24 24 29 211 l5 192 28 24 c40 34 100 33 132 -2
23 -25 24 -32 27 -209 3 -178 4 -184 27 -209 44 -47 112 -44 153 8 15 18 18
45 18 189 0 214 14 247 105 247 26 0 43 -7 60 -26 23 -25 24 -32 27 -209 3
-178 4 -184 27 -209 44 -47 112 -44 153 8 14 17 18 41 18 119 0 105 12 143 52
171 48 34 135 11 157 -42 9 -22 11 -129 9 -413 -4 -380 -4 -385 -31 -484 -35
-128 -109 -276 -194 -389 -110 -144 -103 -127 -103 -253 l0 -113 -530 0 -530
0 0 144 c0 80 -4 155 -9 168 -5 13 -127 185 -271 383 -145 198 -270 377 -278
397 -30 75 16 155 94 164 49 6 61 -2 203 -133 96 -90 115 -103 146 -103 24 0
44 9 67 29 l33 29 5 652 5 652 28 24 c38 33 96 33 134 0z"/>
<path d="M2507 4809 c-22 -13 -47 -61 -47 -93 0 -14 13 -40 29 -58 24 -27 36
-33 71 -33 35 0 47 6 71 33 16 18 29 44 29 58 0 33 -25 81 -49 94 -25 13 -81
12 -104 -1z"/>
<path d="M670 4251 c-88 -27 -167 -98 -188 -170 -36 -119 10 -231 117 -285 25
-13 89 -40 141 -61 133 -52 161 -81 125 -132 -39 -56 -159 -49 -242 14 -81 62
-123 65 -168 11 -56 -66 -8 -154 118 -216 150 -74 307 -62 413 31 129 113 124
297 -10 398 -26 20 -105 59 -174 86 -122 48 -127 51 -127 79 0 63 98 73 199
19 84 -44 109 -44 152 -1 58 58 40 120 -50 174 -91 54 -225 77 -306 53z"/>
<path d="M1189 4231 l-29 -29 0 -389 c0 -433 -2 -423 69 -444 31 -9 43 -8 70
6 60 31 62 45 59 457 l-3 370 -33 29 c-44 40 -93 40 -133 0z"/>
<path d="M1750 4247 c-223 -64 -359 -272 -328 -500 39 -286 358 -465 615 -345
132 62 220 210 225 380 2 68 1 71 -30 99 l-32 29 -141 0 -141 0 -29 -29 c-21
-22 -29 -39 -29 -66 0 -72 42 -105 135 -105 30 0 55 -2 55 -5 0 -3 -9 -23 -20
-45 -69 -136 -281 -124 -377 21 -22 33 -28 56 -31 111 -5 85 14 140 66 193 57
57 87 69 172 70 62 0 85 -5 133 -28 68 -34 104 -30 142 15 53 63 25 125 -81
175 -66 31 -87 36 -167 39 -56 3 -110 -1 -137 -9z"/>
<path d="M2381 4246 c-49 -27 -50 -35 -51 -438 l0 -378 29 -32 c39 -44 98 -46
139 -5 l27 27 5 206 5 206 152 -219 c173 -251 195 -268 273 -228 59 30 60 39
60 435 0 384 -2 404 -49 430 -25 13 -77 13 -101 0 -40 -21 -45 -48 -50 -263
l-5 -208 -157 229 c-100 144 -167 233 -183 240 -33 15 -64 15 -94 -2z"/>
<path d="M3309 4231 l-29 -29 0 -289 c0 -342 3 -357 87 -441 94 -94 212 -129
334 -98 114 30 212 111 243 204 13 37 16 99 16 335 l0 289 -29 29 c-40 40 -89
40 -133 0 l-33 -29 -5 -287 -5 -287 -30 -24 c-68 -55 -152 -53 -214 5 l-31 29
0 267 c0 220 -3 273 -15 300 -30 61 -107 74 -156 26z"/>
<path d="M4089 4221 l-29 -29 0 -390 0 -389 24 -26 c47 -51 120 -43 157 17 16
25 19 51 19 142 l0 112 93 4 c105 5 153 24 212 85 53 55 77 108 83 184 7 98
-17 159 -88 231 -76 75 -119 88 -303 88 l-139 0 -29 -29z m332 -200 c21 -22
29 -39 29 -66 0 -27 -8 -44 -29 -66 -27 -26 -36 -29 -95 -29 l-66 0 0 95 0 95
66 0 c59 0 68 -3 95 -29z"/>
</g>
</svg>
